<svg xmlns="http://www.w3.org/2000/svg" width="572" height="572" viewBox="0 0 572 572" font-family="ui-sans-serif, system-ui, sans-serif"><defs><filter id="layerShadow" x="-20%" y="-20%" width="140%" height="140%"><feDropShadow dx="0" dy="1" stdDeviation="1.1" flood-color="#0f172a" flood-opacity="0.18"/></filter></defs><g data-layer="paper"><polygon points="286,516 286,286 56,286" fill="#f8fafc" stroke="none" data-kind="face" data-face-index="0"/><polygon points="516,286 286,56 286,286" fill="#f8fafc" stroke="none" data-kind="face" data-face-index="1"/><polygon points="286,56 171,171 286,286" fill="#f8fafc" stroke="none" data-kind="face" data-face-index="2"/><polygon points="286,286 171,171 56,286" fill="#f8fafc" stroke="none" data-kind="face" data-face-index="3"/><polygon points="516,286 286,286 401,401" fill="#f8fafc" stroke="none" data-kind="face" data-face-index="4"/><polygon points="286,516 401,401 286,286" fill="#f8fafc" stroke="none" data-kind="face" data-face-index="5"/><polygon points="171,171 56,132.66666666666663 56,286" fill="#f8fafc" stroke="none" data-kind="face" data-face-index="6"/><polygon points="286,56 132.66666666666666,56 171,171" fill="#f8fafc" stroke="none" data-kind="face" data-face-index="7"/><polygon points="286,516 439.33333333333337,516 401,401" fill="#f8fafc" stroke="none" data-kind="face" data-face-index="8"/><polygon points="516,439.33333333333337 516,286 401,401" fill="#f8fafc" stroke="none" data-kind="face" data-face-index="9"/><polygon points="132.66666666666666,56 56,56 171,171" fill="#f8fafc" stroke="none" data-kind="face" data-face-index="10"/><polygon points="171,171 56,56 56,132.66666666666663" fill="#f8fafc" stroke="none" data-kind="face" data-face-index="11"/><polygon points="516,516 516,439.33333333333337 401,401" fill="#f8fafc" stroke="none" data-kind="face" data-face-index="12"/><polygon points="439.33333333333337,516 516,516 401,401" fill="#f8fafc" stroke="none" data-kind="face" data-face-index="13"/><polygon points="516,171 516,56 401,56" fill="#f8fafc" stroke="none" data-kind="face" data-face-index="14"/><polygon points="516,228.5 516,171 401,56 343.5,56" fill="#f8fafc" stroke="none" data-kind="face" data-face-index="15"/><polygon points="516,286 516,228.5 343.5,56 286,56" fill="#f8fafc" stroke="none" data-kind="face" data-face-index="16"/><polygon points="56,516 286,516 56,286" fill="#f8fafc" stroke="none" data-kind="face" data-face-index="17"/></g><g data-layer="creases"><line class="crease-V" data-kind="crease" x1="286" y1="516" x2="286" y2="286" stroke="#0f172a" stroke-width="2" stroke-linecap="round" stroke-dasharray="6 4" data-name="r" data-bel-name="r" data-crease-id="2"/><line class="crease-V" data-kind="crease" x1="286" y1="286" x2="56" y2="286" stroke="#0f172a" stroke-width="2" stroke-linecap="round" stroke-dasharray="6 4" data-name="l" data-bel-name="l" data-crease-id="1"/><line class="crease-V" data-kind="crease" x1="56" y1="286" x2="286" y2="516" stroke="#0f172a" stroke-width="2" stroke-linecap="round" stroke-dasharray="6 4" data-name="s7" data-bel-name="s7" data-crease-id="9"/><line class="crease-M" data-kind="crease" x1="516" y1="286" x2="286" y2="56" stroke="#0f172a" stroke-width="2" stroke-linecap="round" stroke-dasharray="8 2 1 2" data-name="s6" data-bel-name="s6" data-crease-id="8"/><line class="crease-M" data-kind="crease" x1="286" y1="56" x2="286" y2="286" stroke="#0f172a" stroke-width="2" stroke-linecap="round" stroke-dasharray="8 2 1 2" data-name="l" data-bel-name="l" data-crease-id="1"/><line class="crease-M" data-kind="crease" x1="286" y1="286" x2="516" y2="286" stroke="#0f172a" stroke-width="2" stroke-linecap="round" stroke-dasharray="8 2 1 2" data-name="r" data-bel-name="r" data-crease-id="2"/><line class="crease-V" data-kind="crease" x1="286" y1="56" x2="171" y2="171" stroke="#0f172a" stroke-width="2" stroke-linecap="round" stroke-dasharray="6 4" data-name="wl" data-bel-name="wl" data-crease-id="3"/><line class="crease-V" data-kind="crease" x1="171" y1="171" x2="286" y2="286" stroke="#0f172a" stroke-width="2" stroke-linecap="round" stroke-dasharray="6 4" data-name="bd" data-bel-name="bd" data-crease-id="0"/><line class="crease-M" data-kind="crease" x1="171" y1="171" x2="56" y2="286" stroke="#0f172a" stroke-width="2" stroke-linecap="round" stroke-dasharray="8 2 1 2" data-name="wl" data-bel-name="wl" data-crease-id="3"/><line class="crease-V" data-kind="crease" x1="286" y1="286" x2="401" y2="401" stroke="#0f172a" stroke-width="2" stroke-linecap="round" stroke-dasharray="6 4" data-name="bd" data-bel-name="bd" data-crease-id="0"/><line class="crease-V" data-kind="crease" x1="401" y1="401" x2="516" y2="286" stroke="#0f172a" stroke-width="2" stroke-linecap="round" stroke-dasharray="6 4" data-name="wr" data-bel-name="wr" data-crease-id="4"/><line class="crease-M" data-kind="crease" x1="286" y1="516" x2="401" y2="401" stroke="#0f172a" stroke-width="2" stroke-linecap="round" stroke-dasharray="8 2 1 2" data-name="wr" data-bel-name="wr" data-crease-id="4"/><line class="crease-V" data-kind="crease" x1="171" y1="171" x2="56" y2="132.66666666666663" stroke="#0f172a" stroke-width="2" stroke-linecap="round" stroke-dasharray="6 4" data-name="hl" data-bel-name="hl" data-crease-id="5"/><line class="crease-B" data-kind="crease" x1="56" y1="132.66666666666663" x2="56" y2="286" stroke="#1f2937" stroke-width="3" stroke-linecap="round"/><line class="crease-B" data-kind="crease" x1="286" y1="56" x2="132.66666666666666" y2="56" stroke="#1f2937" stroke-width="3" stroke-linecap="round"/><line class="crease-M" data-kind="crease" x1="132.66666666666666" y1="56" x2="171" y2="171" stroke="#0f172a" stroke-width="2" stroke-linecap="round" stroke-dasharray="8 2 1 2" data-name="hl" data-bel-name="hl" data-crease-id="5"/><line class="crease-B" data-kind="crease" x1="286" y1="516" x2="439.33333333333337" y2="516" stroke="#1f2937" stroke-width="3" stroke-linecap="round"/><line class="crease-V" data-kind="crease" x1="439.33333333333337" y1="516" x2="401" y2="401" stroke="#0f172a" stroke-width="2" stroke-linecap="round" stroke-dasharray="6 4" data-name="hr" data-bel-name="hr" data-crease-id="6"/><line class="crease-B" data-kind="crease" x1="516" y1="439.33333333333337" x2="516" y2="286" stroke="#1f2937" stroke-width="3" stroke-linecap="round"/><line class="crease-M" data-kind="crease" x1="401" y1="401" x2="516" y2="439.33333333333337" stroke="#0f172a" stroke-width="2" stroke-linecap="round" stroke-dasharray="8 2 1 2" data-name="hr" data-bel-name="hr" data-crease-id="6"/><line class="crease-B" data-kind="crease" x1="132.66666666666666" y1="56" x2="56" y2="56" stroke="#1f2937" stroke-width="3" stroke-linecap="round"/><line class="crease-V" data-kind="crease" x1="56" y1="56" x2="171" y2="171" stroke="#0f172a" stroke-width="2" stroke-linecap="round" stroke-dasharray="6 4" data-name="bd" data-bel-name="bd" data-crease-id="0"/><line class="crease-B" data-kind="crease" x1="56" y1="56" x2="56" y2="132.66666666666663" stroke="#1f2937" stroke-width="3" stroke-linecap="round"/><line class="crease-B" data-kind="crease" x1="516" y1="516" x2="516" y2="439.33333333333337" stroke="#1f2937" stroke-width="3" stroke-linecap="round"/><line class="crease-V" data-kind="crease" x1="401" y1="401" x2="516" y2="516" stroke="#0f172a" stroke-width="2" stroke-linecap="round" stroke-dasharray="6 4" data-name="bd" data-bel-name="bd" data-crease-id="0"/><line class="crease-B" data-kind="crease" x1="439.33333333333337" y1="516" x2="516" y2="516" stroke="#1f2937" stroke-width="3" stroke-linecap="round"/><line class="crease-B" data-kind="crease" x1="516" y1="171" x2="516" y2="56" stroke="#1f2937" stroke-width="3" stroke-linecap="round"/><line class="crease-B" data-kind="crease" x1="516" y1="56" x2="401" y2="56" stroke="#1f2937" stroke-width="3" stroke-linecap="round"/><line class="crease-V" data-kind="crease" x1="401" y1="56" x2="516" y2="171" stroke="#0f172a" stroke-width="2" stroke-linecap="round" stroke-dasharray="6 4" data-name="s6" data-bel-name="s6" data-crease-id="8"/><line class="crease-B" data-kind="crease" x1="516" y1="228.5" x2="516" y2="171" stroke="#1f2937" stroke-width="3" stroke-linecap="round"/><line class="crease-B" data-kind="crease" x1="401" y1="56" x2="343.5" y2="56" stroke="#1f2937" stroke-width="3" stroke-linecap="round"/><line class="crease-M" data-kind="crease" x1="343.5" y1="56" x2="516" y2="228.5" stroke="#0f172a" stroke-width="2" stroke-linecap="round" stroke-dasharray="8 2 1 2" data-name="s5" data-bel-name="s5" data-crease-id="7"/><line class="crease-B" data-kind="crease" x1="516" y1="286" x2="516" y2="228.5" stroke="#1f2937" stroke-width="3" stroke-linecap="round"/><line class="crease-B" data-kind="crease" x1="343.5" y1="56" x2="286" y2="56" stroke="#1f2937" stroke-width="3" stroke-linecap="round"/><line class="crease-B" data-kind="crease" x1="56" y1="516" x2="286" y2="516" stroke="#1f2937" stroke-width="3" stroke-linecap="round"/><line class="crease-B" data-kind="crease" x1="56" y1="286" x2="56" y2="516" stroke="#1f2937" stroke-width="3" stroke-linecap="round"/></g><g data-layer="annotations"/><g data-layer="hud"><rect class="legend-panel" x="44" y="534" width="334" height="26" rx="6" fill="#f8fafc" stroke="#e2e8f0"/><line x1="56" y1="547" x2="78" y2="547" stroke="#1f2937" stroke-width="3" stroke-linecap="round"/><text x="84" y="552" font-size="13" fill="#334155">boundary</text><line x1="166" y1="547" x2="188" y2="547" stroke="#0f172a" stroke-width="2" stroke-linecap="round" stroke-dasharray="8 2 1 2"/><text x="194" y="552" font-size="13" fill="#334155">mountain</text><line x1="276" y1="547" x2="298" y2="547" stroke="#0f172a" stroke-width="2" stroke-linecap="round" stroke-dasharray="6 4"/><text x="304" y="552" font-size="13" fill="#334155">valley</text></g></svg>