<svg xmlns="http://www.w3.org/2000/svg" viewBox="0 0 64 64" fill="none" stroke="currentColor" stroke-linecap="round" stroke-linejoin="round">
  <path d="M6 6L27.54 6M6 27.54L6 21.23M6 21.23L6 6M27.54 6L58 6M6 58L6 27.54M58 36.46L58 58M58 6L58 36.46M58 58L42.77 58M42.77 58L36.46 58M36.46 58L6 58" stroke-width="4"/>
  <path d="M27.54 6L21.23 21.23M21.23 21.23L6 6M21.23 21.23L6 27.54M6 21.23L21.23 21.23M58 6L21.23 21.23M21.23 21.23L6 58M58 58L42.77 42.77M42.77 42.77L58 36.46M42.77 42.77L58 6M42.77 42.77L32 32M32 32L58 6M32 32L21.23 21.23M42.77 58L42.77 42.77M36.46 58L42.77 42.77M6 58L42.77 42.77M6 58L32 32" stroke-width="4"/>
</svg>
